<?xml version="1.0" encoding="utf-8"?>
<!-- Generator: Adobe Illustrator 16.0.4, SVG Export Plug-In . SVG Version: 6.00 Build 0)  -->
<!DOCTYPE svg PUBLIC "-//W3C//DTD SVG 1.1//EN" "http://www.w3.org/Graphics/SVG/1.1/DTD/svg11.dtd">
<svg version="1.1" id="Layer_1" xmlns="http://www.w3.org/2000/svg" xmlns:xlink="http://www.w3.org/1999/xlink" x="0px" y="0px"
	 width="444.1px" height="125.6px" viewBox="0 0 444.1 125.6" style="enable-background:new 0 0 444.1 125.6;" xml:space="preserve"
	>
<style type="text/css">
<![CDATA[
	.st0{opacity:0.5;}
	.st1{fill:#FFFFFF;}
]]>
</style>
<g>
	<g class="st0">
		<path d="M107.4,53.3l0.1-39.2h-0.2L97.1,53.3h-6.8l-10-39.2h-0.2l0.1,39.2h-7.8v-51H84l9.8,37.3h0.3l9.6-37.3h12.2v51H107.4z"/>
		<path d="M166.3,27.7c0,4-0.4,7.7-1.3,11c-0.8,3.3-2.1,6.1-3.6,8.5c-1.6,2.4-3.5,4.2-5.8,5.5c-2.3,1.3-4.8,1.9-7.7,1.9
			c-2.9,0-5.4-0.6-7.7-1.9c-2.3-1.3-4.2-3.1-5.8-5.5c-1.6-2.4-2.8-5.2-3.6-8.5c-0.8-3.3-1.3-6.9-1.3-11c0-4,0.4-7.7,1.2-10.9
			c0.8-3.3,2-6.1,3.6-8.4c1.6-2.4,3.5-4.2,5.8-5.4c2.3-1.3,4.9-1.9,7.7-1.9c2.8,0,5.4,0.6,7.7,1.9c2.3,1.3,4.2,3.1,5.8,5.4
			c1.6,2.4,2.8,5.2,3.6,8.4C165.9,20,166.3,23.7,166.3,27.7z M157.3,27.7c0-2.6-0.2-5-0.6-7.3c-0.4-2.3-1-4.2-1.8-5.9
			c-0.8-1.7-1.8-3-3-3.9c-1.2-1-2.5-1.4-4.1-1.4c-1.6,0-3,0.5-4.1,1.4c-1.2,1-2.2,2.3-3,3.9c-0.8,1.7-1.4,3.6-1.8,5.9
			c-0.4,2.3-0.6,4.7-0.6,7.3c0,2.6,0.2,5,0.6,7.3c0.4,2.3,1,4.3,1.8,5.9c0.8,1.7,1.8,3,3,4c1.2,1,2.6,1.4,4.1,1.4s3-0.5,4.1-1.4
			c1.2-1,2.2-2.3,3-4c0.8-1.7,1.4-3.7,1.8-5.9C157.2,32.7,157.3,30.3,157.3,27.7z"/>
		<path d="M212.8,27.9c0,8.1-1.7,14.3-5.1,18.8c-3.4,4.4-8.4,6.7-14.9,6.7H180v-51h12.8c6.5,0,11.5,2.2,14.9,6.7
			C211.1,13.5,212.8,19.8,212.8,27.9z M204.1,27.9c0-3-0.3-5.7-0.8-7.9c-0.6-2.3-1.3-4.1-2.3-5.6c-1-1.5-2.2-2.6-3.6-3.3
			c-1.4-0.7-2.9-1.1-4.5-1.1h-4.1v35.9h4.1c1.6,0,3.1-0.4,4.5-1.1c1.4-0.7,2.6-1.9,3.6-3.3c1-1.5,1.8-3.3,2.3-5.6
			C203.9,33.4,204.1,30.8,204.1,27.9z"/>
		<path d="M226.5,53.3v-51h22.8v7.6h-14.5v13.5h13.5v7.1h-13.5v15H250v7.7H226.5z"/>
		<path d="M284.3,53.3l-7.9-21.7h-4.8v21.7h-8.4v-51h14.5c2.1,0,4.1,0.3,5.8,0.8c1.8,0.6,3.3,1.4,4.6,2.6c1.3,1.2,2.3,2.7,3,4.5
			c0.7,1.8,1.1,4,1.1,6.6c0,2-0.3,3.7-0.8,5.2c-0.5,1.5-1.1,2.8-1.9,3.9c-0.8,1.1-1.6,1.9-2.6,2.6c-0.9,0.6-1.9,1.1-2.8,1.3
			l9.1,23.5H284.3z M283.7,17.3c0-1.5-0.2-2.8-0.6-3.8c-0.4-1-1-1.8-1.7-2.4c-0.7-0.6-1.5-1-2.3-1.2c-0.9-0.2-1.7-0.4-2.6-0.4h-4.9
			v15.7h4.9c2.1,0,3.9-0.7,5.2-2C283,21.9,283.7,19.9,283.7,17.3z"/>
		<path d="M328,53.3l-14.5-36h-0.2l0.1,36h-7.8v-51h9.9l14.3,36.2h0.2l-0.1-36.2h7.5v51H328z"/>
		<path d="M367,9.6v43.6h-8.5V9.6h-9.6V2.3h27.6v7.3H367z"/>
		<path d="M9.6,82.1v14h13.1v7.3h-13v21.9H1v-51h22.8v7.8H9.6z"/>
		<path d="M71.3,99.7c0,4-0.4,7.7-1.3,11c-0.8,3.3-2.1,6.1-3.6,8.5c-1.6,2.4-3.5,4.2-5.8,5.5c-2.3,1.3-4.8,1.9-7.7,1.9
			c-2.9,0-5.4-0.6-7.7-1.9c-2.3-1.3-4.2-3.1-5.8-5.5c-1.6-2.4-2.8-5.2-3.6-8.5c-0.8-3.3-1.3-6.9-1.3-11c0-4,0.4-7.7,1.2-10.9
			c0.8-3.3,2-6.1,3.6-8.4s3.5-4.2,5.8-5.4c2.3-1.3,4.9-1.9,7.7-1.9c2.8,0,5.4,0.6,7.7,1.9c2.3,1.3,4.2,3.1,5.8,5.4s2.8,5.2,3.6,8.4
			C70.9,92,71.3,95.7,71.3,99.7z M51.6,64.4c0,1.3-0.4,2.5-1.2,3.4c-0.8,0.9-1.9,1.4-3.1,1.4c-1.3,0-2.3-0.5-3.1-1.4
			c-0.8-0.9-1.2-2-1.2-3.4c0-1.3,0.4-2.4,1.2-3.3c0.8-0.9,1.8-1.4,3.1-1.4c1.3,0,2.3,0.5,3.1,1.4C51.2,62,51.6,63.1,51.6,64.4z
			 M62.4,99.7c0-2.6-0.2-5-0.6-7.3c-0.4-2.3-1-4.2-1.8-5.9c-0.8-1.7-1.8-3-3-3.9c-1.2-1-2.5-1.4-4.1-1.4c-1.6,0-3,0.5-4.1,1.4
			c-1.2,1-2.2,2.3-3,3.9c-0.8,1.7-1.4,3.6-1.8,5.9c-0.4,2.3-0.6,4.7-0.6,7.3c0,2.6,0.2,5,0.6,7.3c0.4,2.3,1,4.3,1.8,5.9
			c0.8,1.7,1.8,3,3,4c1.2,1,2.6,1.4,4.1,1.4s3-0.5,4.1-1.4c1.2-1,2.2-2.3,3-4c0.8-1.7,1.4-3.7,1.8-5.9
			C62.2,104.7,62.4,102.3,62.4,99.7z M62.9,64.4c0,1.3-0.4,2.5-1.3,3.4c-0.8,0.9-1.9,1.4-3.1,1.4c-1.2,0-2.3-0.5-3.1-1.4
			c-0.8-0.9-1.2-2-1.2-3.4c0-1.3,0.4-2.4,1.2-3.3c0.8-0.9,1.8-1.4,3.1-1.4c1.2,0,2.3,0.5,3.1,1.4C62.5,62,62.9,63.1,62.9,64.4z"/>
		<path d="M106.1,125.3l-7.9-21.7h-4.8v21.7H85v-51h14.5c2.1,0,4.1,0.3,5.8,0.8c1.8,0.6,3.3,1.4,4.6,2.6c1.3,1.2,2.3,2.7,3,4.5
			c0.7,1.8,1.1,4,1.1,6.6c0,2-0.3,3.7-0.8,5.2c-0.5,1.5-1.1,2.8-1.9,3.9c-0.8,1.1-1.6,1.9-2.6,2.6c-0.9,0.6-1.9,1.1-2.8,1.3
			l9.1,23.5H106.1z M105.6,89.3c0-1.5-0.2-2.8-0.6-3.8c-0.4-1-1-1.8-1.7-2.4c-0.7-0.6-1.5-1-2.3-1.2c-0.9-0.2-1.7-0.4-2.6-0.4h-4.9
			v15.7h4.9c2.1,0,3.9-0.7,5.2-2C104.9,93.9,105.6,91.9,105.6,89.3z"/>
		<path d="M127.6,125.3v-51h22.8v7.6h-14.5v13.5h13.5v7.1h-13.5v15h15.3v7.7H127.6z"/>
		<path d="M179.1,81.6v43.6h-8.5V81.6H161v-7.3h27.6v7.3H179.1z"/>
		<path d="M219.7,125.3l-2.5-10.8h-13.4l-2.6,10.8h-8.6l12.7-51h11l12.5,51H219.7z M210.7,82.4h-0.3l-5.5,25.3h11.2L210.7,82.4z"/>
		<path d="M263.7,125.2c-2.1,0.8-4.7,1.2-7.7,1.2c-3,0-5.7-0.6-8.1-1.9c-2.4-1.3-4.4-3.1-6.1-5.4s-2.9-5.2-3.8-8.4
			c-0.9-3.3-1.3-6.9-1.3-10.9c0-3.9,0.4-7.5,1.3-10.7c0.9-3.3,2.1-6.1,3.7-8.5c1.6-2.4,3.6-4.2,5.9-5.5c2.3-1.3,4.9-2,7.8-2
			c3,0,5.6,0.5,7.8,1.6c2.2,1.1,4,2.6,5.4,4.6l-5,6c-1.9-2.8-4.5-4.2-7.8-4.2c-1.8,0-3.3,0.5-4.6,1.5c-1.3,1-2.4,2.4-3.3,4.1
			c-0.9,1.7-1.5,3.7-1.9,5.9s-0.6,4.6-0.6,7.1c0,2.6,0.2,5,0.6,7.3c0.4,2.3,1.1,4.3,1.9,6c0.9,1.7,2,3,3.3,4c1.3,1,2.9,1.4,4.7,1.4
			c1.2,0,2.2-0.1,3.1-0.4c0.9-0.3,1.7-0.6,2.3-1v-13.2h-6.2v-7.5h14v25.8C267.7,123.4,265.9,124.4,263.7,125.2z"/>
		<path d="M307.1,125.3l-2.5-10.8h-13.4l-2.6,10.8H280l12.7-51h11l12.5,51H307.1z M298.1,82.4h-0.3l-5.5,25.3h11.2L298.1,82.4z"/>
		<path d="M350,125.3l-14.5-36h-0.2l0.1,36h-7.8v-51h9.9l14.3,36.2h0.2L352,74.3h7.5v51H350z"/>
		<path d="M407.9,99.9c0,8.1-1.7,14.3-5.1,18.8c-3.4,4.4-8.4,6.7-14.9,6.7h-12.7v-51H388c6.5,0,11.5,2.2,14.9,6.7
			C406.2,85.5,407.9,91.8,407.9,99.9z M399.3,99.9c0-3-0.3-5.7-0.8-7.9c-0.6-2.3-1.3-4.1-2.3-5.6c-1-1.5-2.2-2.6-3.6-3.3
			c-1.4-0.7-2.9-1.1-4.5-1.1h-4.1v35.9h4.1c1.6,0,3.1-0.4,4.5-1.1s2.6-1.9,3.6-3.3c1-1.5,1.8-3.3,2.3-5.6
			C399,105.4,399.3,102.8,399.3,99.9z"/>
		<path d="M421.6,125.3v-51h22.8v7.6h-14.5v13.5h13.5v7.1h-13.5v15h15.3v7.7H421.6z"/>
	</g>
	<g>
		<g>
			<path class="st1" d="M106.4,52.3l0.1-39.2h-0.2L96.1,52.3h-6.8l-10-39.2h-0.2l0.1,39.2h-7.8v-51H83l9.8,37.3h0.3l9.6-37.3h12.2
				v51H106.4z"/>
			<path class="st1" d="M165.3,26.7c0,4-0.4,7.7-1.3,11c-0.8,3.3-2.1,6.1-3.6,8.5c-1.6,2.4-3.5,4.2-5.8,5.5
				c-2.3,1.3-4.8,1.9-7.7,1.9c-2.9,0-5.4-0.6-7.7-1.9c-2.3-1.3-4.2-3.1-5.8-5.5c-1.6-2.4-2.8-5.2-3.6-8.5c-0.8-3.3-1.3-6.9-1.3-11
				c0-4,0.4-7.7,1.2-10.9c0.8-3.3,2-6.1,3.6-8.4c1.6-2.4,3.5-4.2,5.8-5.4c2.3-1.3,4.9-1.9,7.7-1.9c2.8,0,5.4,0.6,7.7,1.9
				c2.3,1.3,4.2,3.1,5.8,5.4c1.6,2.4,2.8,5.2,3.6,8.4C164.9,19,165.3,22.7,165.3,26.7z M156.3,26.7c0-2.6-0.2-5-0.6-7.3
				c-0.4-2.3-1-4.2-1.8-5.9c-0.8-1.7-1.8-3-3-3.9c-1.2-1-2.5-1.4-4.1-1.4c-1.6,0-3,0.5-4.1,1.4c-1.2,1-2.2,2.3-3,3.9
				c-0.8,1.7-1.4,3.6-1.8,5.9c-0.4,2.3-0.6,4.7-0.6,7.3c0,2.6,0.2,5,0.6,7.3c0.4,2.3,1,4.3,1.8,5.9c0.8,1.7,1.8,3,3,4
				c1.2,1,2.6,1.4,4.1,1.4s3-0.5,4.1-1.4c1.2-1,2.2-2.3,3-4c0.8-1.7,1.4-3.7,1.8-5.9C156.2,31.7,156.3,29.3,156.3,26.7z"/>
			<path class="st1" d="M211.8,26.9c0,8.1-1.7,14.3-5.1,18.8c-3.4,4.4-8.4,6.7-14.9,6.7H179v-51h12.8c6.5,0,11.5,2.2,14.9,6.7
				C210.1,12.5,211.8,18.8,211.8,26.9z M203.1,26.9c0-3-0.3-5.7-0.8-7.9c-0.6-2.3-1.3-4.1-2.3-5.6c-1-1.5-2.2-2.6-3.6-3.3
				c-1.4-0.7-2.9-1.1-4.5-1.1h-4.1v35.9h4.1c1.6,0,3.1-0.4,4.5-1.1c1.4-0.7,2.6-1.9,3.6-3.3c1-1.5,1.8-3.3,2.3-5.6
				C202.9,32.4,203.1,29.8,203.1,26.9z"/>
			<path class="st1" d="M225.5,52.3v-51h22.8v7.6h-14.5v13.5h13.5v7.1h-13.5v15H249v7.7H225.5z"/>
			<path class="st1" d="M283.3,52.3l-7.9-21.7h-4.8v21.7h-8.4v-51h14.5c2.1,0,4.1,0.3,5.8,0.8c1.8,0.6,3.3,1.4,4.6,2.6
				c1.3,1.2,2.3,2.7,3,4.5c0.7,1.8,1.1,4,1.1,6.6c0,2-0.3,3.7-0.8,5.2c-0.5,1.5-1.1,2.8-1.9,3.9c-0.8,1.1-1.6,1.9-2.6,2.6
				c-0.9,0.6-1.9,1.1-2.8,1.3l9.1,23.5H283.3z M282.7,16.3c0-1.5-0.2-2.8-0.6-3.8c-0.4-1-1-1.8-1.7-2.4c-0.7-0.6-1.5-1-2.3-1.2
				c-0.9-0.2-1.7-0.4-2.6-0.4h-4.9v15.7h4.9c2.1,0,3.9-0.7,5.2-2C282,20.9,282.7,18.9,282.7,16.3z"/>
			<path class="st1" d="M327,52.3l-14.5-36h-0.2l0.1,36h-7.8v-51h9.9l14.3,36.2h0.2l-0.1-36.2h7.5v51H327z"/>
			<path class="st1" d="M366,8.6v43.6h-8.5V8.6h-9.6V1.3h27.6v7.3H366z"/>
			<path class="st1" d="M8.6,81.1v14h13.1v7.3h-13v21.9H0v-51h22.8v7.8H8.6z"/>
			<path class="st1" d="M70.3,98.7c0,4-0.4,7.7-1.3,11c-0.8,3.3-2.1,6.1-3.6,8.5c-1.6,2.4-3.5,4.2-5.8,5.5c-2.3,1.3-4.8,1.9-7.7,1.9
				c-2.9,0-5.4-0.6-7.7-1.9c-2.3-1.3-4.2-3.1-5.8-5.5c-1.6-2.4-2.8-5.2-3.6-8.5c-0.8-3.3-1.3-6.9-1.3-11c0-4,0.4-7.7,1.2-10.9
				c0.8-3.3,2-6.1,3.6-8.4s3.5-4.2,5.8-5.4c2.3-1.3,4.9-1.9,7.7-1.9c2.8,0,5.4,0.6,7.7,1.9c2.3,1.3,4.2,3.1,5.8,5.4s2.8,5.2,3.6,8.4
				C69.9,91,70.3,94.7,70.3,98.7z M50.6,63.4c0,1.3-0.4,2.5-1.2,3.4c-0.8,0.9-1.9,1.4-3.1,1.4c-1.3,0-2.3-0.5-3.1-1.4
				c-0.8-0.9-1.2-2-1.2-3.4c0-1.3,0.4-2.4,1.2-3.3c0.8-0.9,1.8-1.4,3.1-1.4c1.3,0,2.3,0.5,3.1,1.4C50.2,61,50.6,62.1,50.6,63.4z
				 M61.4,98.7c0-2.6-0.2-5-0.6-7.3c-0.4-2.3-1-4.2-1.8-5.9c-0.8-1.7-1.8-3-3-3.9c-1.2-1-2.5-1.4-4.1-1.4c-1.6,0-3,0.5-4.1,1.4
				c-1.2,1-2.2,2.3-3,3.9c-0.8,1.7-1.4,3.6-1.8,5.9c-0.4,2.3-0.6,4.7-0.6,7.3c0,2.6,0.2,5,0.6,7.3c0.4,2.3,1,4.3,1.8,5.9
				c0.8,1.7,1.8,3,3,4c1.2,1,2.6,1.4,4.1,1.4s3-0.5,4.1-1.4c1.2-1,2.2-2.3,3-4c0.8-1.7,1.4-3.7,1.8-5.9
				C61.2,103.7,61.4,101.3,61.4,98.7z M61.9,63.4c0,1.3-0.4,2.5-1.3,3.4c-0.8,0.9-1.9,1.4-3.1,1.4c-1.2,0-2.3-0.5-3.1-1.4
				c-0.8-0.9-1.2-2-1.2-3.4c0-1.3,0.4-2.4,1.2-3.3c0.8-0.9,1.8-1.4,3.1-1.4c1.2,0,2.3,0.5,3.1,1.4C61.5,61,61.9,62.1,61.9,63.4z"/>
			<path class="st1" d="M105.1,124.3l-7.9-21.7h-4.8v21.7H84v-51h14.5c2.1,0,4.1,0.3,5.8,0.8c1.8,0.6,3.3,1.4,4.6,2.6
				c1.3,1.2,2.3,2.7,3,4.5c0.7,1.8,1.1,4,1.1,6.6c0,2-0.3,3.7-0.8,5.2c-0.5,1.5-1.1,2.8-1.9,3.9c-0.8,1.1-1.6,1.9-2.6,2.6
				c-0.9,0.6-1.9,1.1-2.8,1.3l9.1,23.5H105.1z M104.6,88.3c0-1.5-0.2-2.8-0.6-3.8c-0.4-1-1-1.8-1.7-2.4c-0.7-0.6-1.5-1-2.3-1.2
				c-0.9-0.2-1.7-0.4-2.6-0.4h-4.9v15.7h4.9c2.1,0,3.9-0.7,5.2-2C103.9,92.9,104.6,90.9,104.6,88.3z"/>
			<path class="st1" d="M126.6,124.3v-51h22.8v7.6h-14.5v13.5h13.5v7.1h-13.5v15h15.3v7.7H126.6z"/>
			<path class="st1" d="M178.1,80.6v43.6h-8.5V80.6H160v-7.3h27.6v7.3H178.1z"/>
			<path class="st1" d="M218.7,124.3l-2.5-10.8h-13.4l-2.6,10.8h-8.6l12.7-51h11l12.5,51H218.7z M209.7,81.4h-0.3l-5.5,25.3h11.2
				L209.7,81.4z"/>
			<path class="st1" d="M262.7,124.2c-2.1,0.8-4.7,1.2-7.7,1.2c-3,0-5.7-0.6-8.1-1.9c-2.4-1.3-4.4-3.1-6.1-5.4s-2.9-5.2-3.8-8.4
				c-0.9-3.3-1.3-6.9-1.3-10.9c0-3.9,0.4-7.5,1.3-10.7c0.9-3.3,2.1-6.1,3.7-8.5c1.6-2.4,3.6-4.2,5.9-5.5c2.3-1.3,4.9-2,7.8-2
				c3,0,5.6,0.5,7.8,1.6c2.2,1.1,4,2.6,5.4,4.6l-5,6c-1.9-2.8-4.5-4.2-7.8-4.2c-1.8,0-3.3,0.5-4.6,1.5c-1.3,1-2.4,2.4-3.3,4.1
				c-0.9,1.7-1.5,3.7-1.9,5.9s-0.6,4.6-0.6,7.1c0,2.6,0.2,5,0.6,7.3c0.4,2.3,1.1,4.3,1.9,6c0.9,1.7,2,3,3.3,4c1.3,1,2.9,1.4,4.7,1.4
				c1.2,0,2.2-0.1,3.1-0.4c0.9-0.3,1.7-0.6,2.3-1v-13.2h-6.2v-7.5h14v25.8C266.7,122.4,264.9,123.4,262.7,124.2z"/>
			<path class="st1" d="M306.1,124.3l-2.5-10.8h-13.4l-2.6,10.8H279l12.7-51h11l12.5,51H306.1z M297.1,81.4h-0.3l-5.5,25.3h11.2
				L297.1,81.4z"/>
			<path class="st1" d="M349,124.3l-14.5-36h-0.2l0.1,36h-7.8v-51h9.9l14.3,36.2h0.2L351,73.3h7.5v51H349z"/>
			<path class="st1" d="M406.9,98.9c0,8.1-1.7,14.3-5.1,18.8c-3.4,4.4-8.4,6.7-14.9,6.7h-12.7v-51H387c6.5,0,11.5,2.2,14.9,6.7
				C405.2,84.5,406.9,90.8,406.9,98.9z M398.3,98.9c0-3-0.3-5.7-0.8-7.9c-0.6-2.3-1.3-4.1-2.3-5.6c-1-1.5-2.2-2.6-3.6-3.3
				c-1.4-0.7-2.9-1.1-4.5-1.1h-4.1v35.9h4.1c1.6,0,3.1-0.4,4.5-1.1s2.6-1.9,3.6-3.3c1-1.5,1.8-3.3,2.3-5.6
				C398,104.4,398.3,101.8,398.3,98.9z"/>
			<path class="st1" d="M420.6,124.3v-51h22.8v7.6h-14.5v13.5h13.5v7.1h-13.5v15h15.3v7.7H420.6z"/>
		</g>
	</g>
</g>
</svg>
