<?xml version="1.0" encoding="utf-8"?>
<!-- Generator: Adobe Illustrator 16.0.4, SVG Export Plug-In . SVG Version: 6.00 Build 0)  -->
<!DOCTYPE svg PUBLIC "-//W3C//DTD SVG 1.1//EN" "http://www.w3.org/Graphics/SVG/1.1/DTD/svg11.dtd">
<svg version="1.1" id="Layer_1" xmlns="http://www.w3.org/2000/svg" xmlns:xlink="http://www.w3.org/1999/xlink" x="0px" y="0px"
	 width="167.569px" height="26.114px" viewBox="320.3 267.193 167.569 26.114"
	 enable-background="new 320.3 267.193 167.569 26.114" xml:space="preserve">
<g>
	<path fill="#00B4E5" d="M487.742,281.815c-0.086,0.749-0.826,2.068-1.643,2.247c-1.203,0.263-0.354-2.203-0.283-2.729
		c0.061-0.473,0.482-2.744-0.062-3.07c-0.627-0.373-1.973,1.791-2.244,2.167c-1.535,2.188-2.537,4.489-3.344,7.03
		c-0.246,0.777-1.139,1.396-1.922,0.688c-0.537-0.485-0.758-1.332-0.963-2.001c0-0.661,0.451-1.511,0.639-2.141
		c0.314-1.057,0.631-2.113,0.945-3.17c0.264-0.88,0.525-1.76,0.789-2.64c0.154-0.524,0.166-1.791,0.934-1.585
		c0.412,0.376,0.764,0.816,1.104,1.256c0.195,0.46,0.109,1.003,0.203,1.486c0.752-0.847,1.443-1.852,2.471-2.39
		c1.459-0.765,2.816,0.838,3.377,2.056c0.182,0.92,0.156,1.902-0.002,2.825c0.016-0.099,0.029-0.198,0.041-0.298
		C487.765,281.636,487.751,281.725,487.742,281.815C487.66,282.532,487.843,281.098,487.742,281.815z"/>
	<path fill="#00B4E5" d="M384.971,271.308c-0.69,0.504-4.263,3.578-1.715,3.683c1.6,0.065,2.145-0.511,2.739-1.999
		C386.328,272.156,386.174,270.847,384.971,271.308z"/>
	<path fill="#00B4E5" d="M462.347,271.585c-1.688,0.208-3.639,3.809-1.104,3.809c0.709,0,1.797-0.452,2.174-1.058
		C464.029,273.36,463.884,271.476,462.347,271.585z"/>
	<path fill="#00B4E5" d="M462.611,285.301c-0.436,0.548-1.146,1.111-1.836,1.273c-1.168,0.275-0.939-1.453-0.812-2.106
		c0.271-1.402,0.963-2.683,1.418-4.025c0.336-0.991,1.035-2.727,0.795-3.78c-1.67,0-2.588-0.259-3.275,1.511
		c-0.482,1.238-0.865,2.604-1.195,3.888c-0.406,1.574-0.438,3.121,0.326,4.589c0.59,1.136,2.02,2.602,3.348,1.485
		c0.016,0,0.027-0.009,0.033-0.026c0.83-0.755,1.291-2.087,1.752-3.076L462.611,285.301z"/>
	<path fill="#00B4E5" d="M428.021,277.199c-0.957-1.966-4.104-0.933-5.445-0.007c-2.23,1.538-3.784,4.52-3.599,7.241
		c-0.024,0.018-0.049,0.029-0.074,0.048c-0.238,0.967-2.245,1.939-3.043,2.358c-0.706,0.37-1.79,0.842-2.137-0.172
		c-0.46-1.347-0.022-3.16,0.334-4.493c0.077-0.23,0.386-1.23,0.924-2.949c0.341-0.786,1.878-0.384,2.409-0.896
		c0.453-0.227,1.731-1.181,2.204-1.025c-0.128-0.076-0.385-0.512-0.872-0.641c-1.256-0.025-2.151-0.025-2.717-0.025
		c0-1.931,2.13-3.601,2-5.562c-0.18-0.488-0.282-1-0.924-1.18c-1.614,2-2.999,4.461-4.203,7.383c-0.4,0.144-0.753,0.202-1.077,0.486
		c-0.18,0.18-0.308,0.283-0.333,0.309c0.076,0.18,0.051,0.41-0.077,0.666c0.309,0.205,0.563,0.334,0.743,0.41
		c-0.429,1.716-0.971,3.496-1.04,5.273c-0.961,0.769-2.297,2.514-3.642,2.49c-1.705-0.029,0.501-5.96,0.823-6.635
		c0.323-0.846,1.961-2.622,1.537-3.539c-0.408,0-0.785-0.271-1.2-0.195c-0.498,0.091-0.979,0.299-1.492,0.299
		c-0.137,0.354-0.54,0.485-0.759,0.771c-0.27,0.351-0.415,0.782-0.565,1.191c-0.394,1.07-0.86,2.112-1.238,3.19
		c-0.665,1.657-2.797,3.288-4.307,4.127c-0.562-0.74,0.303-2.68,0.551-3.41c0.451-1.328,1.493-2.854,1.269-4.307
		c-0.052-0.256-0.052-0.436-0.025-0.562c-0.778,0-1.092-0.152-1.637,0.55c-0.624,0.805-1.019,1.801-1.418,2.729
		c-0.208,0.48-1.626,3.156-1.287,3.756c-0.956,0.664-1.923,2.02-3.246,1.937c-0.439,0-0.549-1.064-0.513-1.357
		c0.051-0.924,0.256-2.025,0.59-3.332l0.846-3.309c-2.583-2.69-5.637,2.313-7.178,4.051c0-1.448,0.743-2.736,0.871-4.152
		c0.024-0.59-0.386-1.385-1.076-1.41c-0.282-0.025-0.59,0.129-0.949,0.461c0.077,0.154,0.129,0.258,0.104,0.334
		c-0.803,2.131-1.683,4.443-2.03,6.699c-0.86,0.675-1.678,1.615-2.786,1.871c-0.781,0.181-0.604-1.22-0.551-1.623
		c0.329-2.455,1.94-4.695,2.085-7.152c0.066-0.474,0.153-0.749,0.153-1.23c-0.438,0-0.846,0.003-1.262-0.153
		c-0.333-0.125-0.66,0.145-0.995,0.103c-0.152,0.18-0.28,0.307-0.357,0.385c-0.998,2.119-2.058,4.552-2.167,6.928
		c-0.062,1.302,1.035,4.519,2.646,4.669c0,0,0.199,0.049,0.558-0.063c0.151-0.003,0.297-0.081,0.438-0.187
		c0.999-0.55,1.707-1.533,2.445-2.375c0.045,0.119,0.097,0.246,0.157,0.384c1.006,2.079,2.154,0.874,3.128-0.512
		c0.809-1.288,1.524-2.833,2.69-3.846c-0.024,1.564,0.025,2.691,0.181,3.332c0.28,1.385,0.923,2.436,1.974,3.127
		c0.333,0.104,0.795,0.18,1.437,0.232c0.486-0.104,0.947-0.309,1.357-0.59c-0.128,0.18,0.282-0.334,1.256-1.539
		c0.271-0.419,0.507-0.559,0.647-0.8c0.106,0.721,0.354,1.131,0.813,1.569c1.229,1.357,2.551,0.634,3.718-0.334l1.769-1.461
		c0.146,0.82,0.225,2.146,1.23,2.359c1.06,0.328,2.558,0.715,3.409-0.258c0.025-0.025,0.342-0.09,0.879-0.986
		c0.025-0.025,0.104-0.416,0.707-0.646c0.054-0.055,0.316-0.135,0.566-0.204c0.664,2.496,3.017,4.358,5.397,2.684
		c0.888-0.675,1.923-1.541,2.656-2.553c0.153,0.402,0.354,0.788,0.625,1.143c1.261,1.771,3.72,1.049,5.384,0.486
		c0.172-0.32,0.705-0.779,0.281-1.136c-0.428-0.358-1.053-0.111-1.514,0.016c-0.932,0.259-2.199-0.021-2.326-1.152l1.062-0.223
		v-0.001c0.887-0.097,2.852-2.247,3.363-2.88c-0.094,0.136-0.195,0.271-0.281,0.412c0.168-0.278,0.449-0.86,0.719-1.039
		C427.408,280.369,428.597,278.384,428.021,277.199C427.185,275.48,428.597,278.384,428.021,277.199z M425.748,278.508
		c-0.283,1.178-1.131,2.131-1.871,3.051c-0.502,0.618-1.055,1.766-1.922,1.922c0.719-2.249,1.684-4.172,3.793-5.408V278.508z"/>
	<path fill="#00B4E5" d="M455.804,287.276c-1.043-0.863-0.6-2.699-0.436-3.846l0.691-2.486c0.225-0.658,1.639-2.991,0.666-3.436
		c-0.533-0.177-1.164-0.286-1.715-0.114c-0.545,0.17-0.471,0.491-1.008,0.18c-1.211-0.705-2.344-0.469-3.555,0.268
		c-2.264,1.375-4.432,4.6-4.312,7.318l-0.145,0.095c-0.543,0.136-1.209,1.19-1.787,1.044c-0.447-0.114-0.504-1.224-0.545-1.574
		c-0.268-2.274,0.459-4.612,1.518-6.601c-1.625-0.535-2.984-0.356-3.684,1.416c-0.729,1.853-2.127,3.493-3.393,5.018
		c-0.139-1.792,2.494-6.353-0.189-7.114c-1.123-0.318-2.15,0.764-2.852,1.49c-1.064,1.105-2.08,2.26-3.111,3.396
		c-0.406-0.417,0.684-2.345,0.854-2.796c0.15-0.396,0.566-1.18,0.113-1.52c-0.705-0.527-1.518-0.531-2.223-0.01
		c-1.303,0.958-1.461,3.204-1.934,4.658c-0.27,0.834-1.414,3.537-0.604,4.331c0.389,0.319,1.93,1.512,2.434,1
		c0.338-0.65,0.881-1.146,1.201-1.825c0.359-0.759,0.73-1.512,1.102-2.266c0.736-1.492,1.588-3.014,3.029-3.933
		c0,1.666-2.387,7.486,1.053,7.486c0.779,0.044,1.586-0.835,1.742-1.612l0.002,0.001l2.146-2.848
		c0.094,1.353,0.494,2.909,1.572,3.819c1.094,0.921,3.338,0.89,3.793-0.749l0.059-0.022c0.408,1.271,1.59,1.922,2.893,1.729
		c1.41-0.207,2.355-1.329,3.264-2.318c0.184,1.081,1.096,1.943,2.025,2.436c0.504,0.205,1.227,0.358,1.756,0.174
		C457.029,287.786,456.238,287.325,455.804,287.276C455.482,287.009,456.003,287.298,455.804,287.276z M453.267,280.2
		c-0.555,1.961-0.777,3.836-2.629,4.997c-1.213,0.76-2.025,0.043-1.754-1.251c0.322-1.531,2.496-5.773,4.588-5.207l0.256,0.154
		C453.548,279.354,453.396,279.79,453.267,280.2C452.978,281.214,453.396,279.79,453.267,280.2z"/>
	<path fill="#00B4E5" d="M478.199,277.199c-1.199-2.465-5.164-0.455-6.455,0.846c-2.021,2.035-3.479,5.615-2.057,8.359
		c-1.383,0.359-3.084,1.229-3.521-0.808c-0.41-1.907,0.125-4.27,0.553-6.132c0.488-2.131,1.184-4.217,1.955-6.261
		c0.25-0.661,2.561-5.294,2.035-5.608l0,0v-0.001c-0.07-0.058-0.145-0.078-0.225-0.062l-1.098-0.304
		c-0.277-0.104-0.588,0.065-0.871,0.025c-1.5,1.815-2.031,4.103-2.752,6.336c-0.84,2.612-1.652,5.259-1.963,7.994
		c-0.238,2.09-0.662,4.495,1.271,5.948c1.463,1.099,3.729,0.705,4.969-0.562c1.301,1.844,3.68,1.185,5.449,0.587
		c0.17-0.32,0.705-0.779,0.279-1.136c-0.428-0.358-1.053-0.111-1.512,0.016c-0.895,0.248-2.07,0.024-2.303-1.017l0.988-0.358
		c0.861-0.015,2.896-2.241,3.416-2.884c-0.096,0.138-0.195,0.273-0.283,0.415c0.186-0.304,0.439-0.817,0.719-1.039
		C477.585,280.369,478.775,278.384,478.199,277.199C477.363,275.48,478.775,278.384,478.199,277.199z M475.925,278.508
		c-0.283,1.178-1.131,2.131-1.871,3.051c-0.502,0.618-1.055,1.766-1.922,1.922c0.719-2.25,1.686-4.171,3.793-5.408V278.508z"/>
	<g>
		<path fill="#00B4E5" d="M379.54,268.21c-0.085-0.036-0.181-0.019-0.278,0.014l-1.475,0.07v0.006
			c-0.126-0.001-0.197,0.039-0.26,0.121l-3.102,4.689l0,0c-0.765,0.871-1.379,1.845-2.02,2.809
			c-0.352,0.528-0.937,1.948-1.688,1.948c0.566-2.261,1.133-4.521,1.7-6.782c0.117-0.465,0.804-1.922,0.153-2.215
			c-0.41-0.186-0.925-0.211-1.359-0.336c-0.469-0.055-1.287,0.441-1.817,1.104c0,0,0,0-0.573,0.513
			c-1.021,0.807-1.954,1.694-2.856,2.629c-0.527,0.548-1.482,2.086-2.321,2.139c0.354-1.19,0.71-2.381,1.062-3.572
			c0.12-0.403,0.162-1.169,0.093-1.7c-0.148-0.116-0.39-0.258-0.589-0.227l-1.553-0.205v0.002c-0.685-0.17-1.131,0.968-1.149,1.478
			l-0.002-0.001l-1.644,6.887h0.003c-0.533,1.862-0.96,3.74-1.337,5.64c-0.191,0.964-0.747,2.553,0.148,3.216
			c0.528,0.392,0.85,1.251,1.607,1.251c0.59,0,0.843-0.907,0.976-1.341c0.495-1.617,1.07-3.149,1.735-4.71
			c0.054-0.116,0.102-0.262,0.146-0.419c0.201-0.544,0.572-1.554,1.238-3.379c0.276-0.551,0.452-1.145,0.755-1.689
			c0.168-0.213,0.312-0.431,0.413-0.682c1.588-2.43,3.786-3.829,3.786-3.829c0.082,1.015-0.493,2.195-0.753,3.162
			c-0.359,1.334-0.742,2.662-1.044,4.011c-0.258,1.149-0.454,2.315-0.651,3.477c-0.171,1.007-0.631,2.258,0.218,3.04
			c0.203,0.175,0.203,0.175,0.203,0.175c0.312,0.187,0.632,0.485,0.713,0.664c1.112,0.718,1.247-0.386,1.626-1.231
			c0.672-1.494,1.582-2.861,2.323-4.319l3.901-6.874c0.084,1.21-0.279,2.403-0.521,3.575c-0.266,1.294-0.391,2.636-0.455,3.953
			c-0.099,2.075,0.135,4.107,0.525,6.141c1.013,0.459,1.82,0.828,1.812,0.832c-0.01,0.005,0.267-0.151,0.614-0.347
			c0.062-4.83,0.405-9.445,1.353-14.194c0.017-0.754,0.219-1.951,0.45-2.662c0.075-0.215,0.15-0.43,0.227-0.646
			c0.007-0.019,0.006-0.023,0.008-0.033c0.009-0.021,0.016-0.034,0.026-0.06c0.059-0.16,0.055-0.147,0.025-0.064
			c0.062-0.149,0.139-0.345,0.229-0.59C380.493,268.861,380.277,268.519,379.54,268.21
			C379.455,268.174,379.91,268.365,379.54,268.21z"/>
		<path fill="#00B4E5" d="M379.871,270.407c-0.225,0.641-0.006,0.032,0.064-0.171c-0.008,0.02-0.019,0.047-0.025,0.064
			C379.899,270.331,379.887,270.363,379.871,270.407C379.646,271.047,379.887,270.363,379.871,270.407z"/>
	</g>
	<path fill="#00B4E5" d="M328.438,268.917c-0.937-0.01-1.127,0.486-0.424,1.104l2.804,2.463c0.702,0.617,0.895,1.785,0.427,2.596
		l-2.494,4.321c-0.468,0.81-0.101,1.317,0.814,1.127l4.402-0.915c0.916-0.19,1.95,0.365,2.298,1.233l1.902,4.743
		c0.348,0.868,1.095,0.968,1.659,0.223l11.558-15.269c0.564-0.746,0.262-1.365-0.674-1.375L328.438,268.917z M337.291,275.037
		c-0.86,0.367-2.25,1.007-3.089,1.421l-1.47,0.727c-0.84,0.415-1.143,0.091-0.675-0.72l0.396-0.686
		c0.468-0.811,1.59-1.671,2.494-1.914l11.999-2.932c0.903-0.242,0.938-0.14,0.079,0.228L337.291,275.037z"/>
	<g>
		<path fill="#00B4E5" d="M325.761,281.545c0,0-0.063,0.03-0.185,0.087c-0.101,0.049-0.248,0.118-0.458,0.242
			c-0.211,0.108-0.446,0.27-0.728,0.45c-0.25,0.2-0.583,0.402-0.848,0.679c-0.312,0.257-0.549,0.578-0.827,0.912
			c-0.098,0.179-0.2,0.362-0.302,0.55c-0.104,0.19-0.112,0.394-0.19,0.602c-0.102,0.207-0.016,0.424-0.043,0.647
			c-0.036,0.229,0.046,0.457,0.122,0.689c0.072,0.487,0.43,0.93,0.692,1.41c0.331,0.449,0.76,0.854,1.133,1.286
			c0.456,0.372,0.904,0.737,1.337,1.089c0.424,0.375,0.927,0.619,1.357,0.915c0.443,0.278,0.854,0.558,1.254,0.785
			c1.637,0.851,2.728,1.419,2.728,1.419s-1.166-0.41-2.916-1.025c-0.432-0.171-0.886-0.393-1.376-0.61
			c-0.48-0.239-1.026-0.417-1.523-0.741c-0.512-0.307-1.04-0.625-1.577-0.949c-0.484-0.414-1.02-0.795-1.489-1.273
			c-0.421-0.539-0.922-1.022-1.173-1.725c-0.156-0.328-0.312-0.654-0.339-1.034c-0.035-0.363-0.164-0.737-0.085-1.092
			c0.049-0.355,0.062-0.732,0.168-1.056c0.12-0.321,0.235-0.636,0.35-0.94c0.31-0.544,0.616-1.065,0.966-1.46
			c0.323-0.436,0.681-0.742,0.979-1.049c0.316-0.276,0.59-0.525,0.836-0.702c0.231-0.184,0.447-0.331,0.595-0.429
			c0.129-0.086,0.199-0.132,0.199-0.132c0.646-0.427,1.518-0.25,1.945,0.396c0.428,0.647,0.25,1.517-0.397,1.945
			c-0.054,0.035-0.107,0.065-0.165,0.092L325.761,281.545z"/>
	</g>
</g>
</svg>
