<?xml version="1.0" encoding="utf-8"?>
<!-- Generator: Adobe Illustrator 16.0.4, SVG Export Plug-In . SVG Version: 6.00 Build 0)  -->
<!DOCTYPE svg PUBLIC "-//W3C//DTD SVG 1.1//EN" "http://www.w3.org/Graphics/SVG/1.1/DTD/svg11.dtd">
<svg version="1.1" id="Layer_1" xmlns="http://www.w3.org/2000/svg" xmlns:xlink="http://www.w3.org/1999/xlink" x="0px" y="0px"
	 width="220px" height="30px" viewBox="0 0 220 30" style="enable-background:new 0 0 220 30;" xml:space="preserve">
<style type="text/css">
<![CDATA[
	.st0{fill:#689BB7;}
]]>
</style>
<g>
	<g>
		<path class="st0" d="M40.3,19.8l8.5-9.7c0.3-0.3,0.6-0.6,0.9-0.8h-6l-0.2,2.3h-2.8l0.2-4.7h12.8v2.5l-8.4,9.4
			c-0.3,0.4-0.7,0.7-1.1,1h6.5l0.2-2.4h2.8l-0.2,4.8H40.3V19.8z"/>
		<path class="st0" d="M69.6,21.5c-1.1,0.4-3.1,1.1-5.4,1.1c-5.1,0-8.1-3.2-8.1-8c0-4.6,2.6-8.1,7.6-8.1c4.6,0,7,3.4,7,8.1V15h-11
			c0,3,2.2,4.9,5.3,4.9c1.9,0,3.6-0.5,4.9-1.2L69.6,21.5z M67.1,12.8v-0.3c0-1.3-0.8-3.6-3.6-3.6c-2.8,0-3.8,2-3.9,3.9H67.1z"/>
		<path class="st0" d="M72.9,19.8h1.7l0.1-10.5h-2.2V6.8H78c0,1-0.1,2.1-0.3,3.4h0.1c0.6-2,2.3-3.8,5.4-3.8c3.6,0,5.4,2.3,5.4,6
			c0,2.5-0.1,4.9-0.1,7.4h2v2.4h-7.1v-2.4h1.7c0-2.2,0.1-4.5,0.1-6.8c0-2.2-1-3.8-3.1-3.8c-2.3,0-4,1.8-4.1,4.7L78,19.8H80v2.4h-7.1
			V19.8z"/>
		<path class="st0" d="M103.6,8.5c-0.8-0.3-1.8-0.5-3.3-0.5c-3.9,0-5.7,2.7-5.7,6.5c0,3.8,1.9,6.5,5.7,6.5c2.1,0,3.6-0.4,4.6-0.9
			v1.5c-1,0.4-2.6,0.8-4.7,0.8c-4.9,0-7.3-3.6-7.3-8c0-4.4,2.5-8,7.5-8c2.2,0,3.5,0.4,4.6,0.8v3.7h-1.4V8.5z"/>
		<path class="st0" d="M115.1,6.6c4.7,0,7.1,3.6,7.1,8c0,4.4-2.4,8-7.1,8c-4.7,0-7.1-3.6-7.1-8C108,10.3,110.4,6.6,115.1,6.6z
			 M115.1,21.1c3.6,0,5.4-2.7,5.4-6.5c0-3.8-1.9-6.5-5.4-6.5c-3.6,0-5.4,2.7-5.4,6.5C109.7,18.5,111.5,21.1,115.1,21.1z"/>
		<path class="st0" d="M124.9,20.9h2.3l0.1-12.6h-2.7V7h4.2c0,1-0.1,2.1-0.4,3.6h0.1c0.7-2.4,2.6-4,5.6-4c2.8,0,5.1,1.3,5.1,6
			c0,2.8-0.1,5.5-0.1,8.3h2.4v1.3h-6.2v-1.3h2.3c0-2.8,0.1-5.5,0.1-8.2c0-3.1-1.2-4.6-3.9-4.6c-3.1,0-4.9,2.8-4.9,5.6l-0.1,7.2h2.4
			v1.3h-6.2V20.9z"/>
		<path class="st0" d="M151.3,6.6c4.7,0,7.1,3.6,7.1,8c0,4.4-2.4,8-7.1,8c-4.7,0-7.1-3.6-7.1-8C144.2,10.3,146.6,6.6,151.3,6.6z
			 M151.3,21.1c3.6,0,5.4-2.7,5.4-6.5c0-3.8-1.9-6.5-5.4-6.5c-3.6,0-5.4,2.7-5.4,6.5C145.9,18.5,147.7,21.1,151.3,21.1z"/>
		<path class="st0" d="M181.3,20.9h2.3c0-2.8,0.1-5.5,0.1-8.2c0-3.1-1.4-4.6-4-4.6c-2.7,0-4.5,2.7-4.6,5.5l-0.1,7.4h2.4v1.3h-6.2
			v-1.3h2.3c0-2.8,0.1-5.5,0.1-8.2c0-3.1-1.3-4.6-3.8-4.6c-2.8,0-4.7,2.7-4.7,5.5l-0.1,7.4h2.4v1.3h-6.2v-1.3h2.3l0.1-12.6h-2.6V7
			h4.2c0,1-0.1,2.1-0.4,3.6h0.1c0.7-2.4,2.8-4,5.3-4c2.6,0,4.2,1.3,4.8,3.6c0.6-1.2,1.8-3.6,5.4-3.6c2.9,0,5.1,1.5,5.1,6
			c0,2.8-0.1,5.5-0.1,8.3h2.4v1.3h-6.2V20.9z"/>
		<path class="st0" d="M194.7,7v1.3h-2.2l4.1,11.2c0.1,0.3,0.2,0.7,0.3,1.1h0.1c0-0.3,0.1-0.7,0.3-1.1l3.9-11.3H199V7h5.7v1.3h-1.8
			l-5.3,14.8c-1.7,4.7-3.4,6.9-7,6.9c-0.7,0-1.3-0.1-1.8-0.2v-1.4c0.4,0.1,1.1,0.3,1.9,0.3c2.1,0,3.5-1,4.4-3.2l1.2-2.8l-5.4-14.3
			h-2V7H194.7z"/>
	</g>
	<g>
		<path class="st0" d="M21.5,18.6h-6.3h-0.6H9c-0.7,0-1.3,0.6-1.3,1.3c0,0.7,0.6,1.3,1.3,1.3h5.6h0.6h6.3c0.7,0,1.3-0.6,1.3-1.3
			C22.8,19.2,22.2,18.6,21.5,18.6z"/>
		<g>
			<path class="st0" d="M15.2,0C6.8,0,0,6.8,0,15.2h30.5C30.5,6.8,23.7,0,15.2,0z M21.5,11.9h-6.3h-0.3H9c-0.7,0-1.3-0.6-1.3-1.3
				c0-0.7,0.6-1.3,1.3-1.3h5.9h0.3h6.3c0.7,0,1.3,0.6,1.3,1.3C22.8,11.3,22.2,11.9,21.5,11.9z"/>
		</g>
	</g>
</g>
</svg>
