<?xml version="1.0" encoding="utf-8"?>
<!-- Generator: Adobe Illustrator 16.0.4, SVG Export Plug-In . SVG Version: 6.00 Build 0)  -->
<!DOCTYPE svg PUBLIC "-//W3C//DTD SVG 1.1//EN" "http://www.w3.org/Graphics/SVG/1.1/DTD/svg11.dtd">
<svg version="1.1" id="Layer_1" xmlns="http://www.w3.org/2000/svg" xmlns:xlink="http://www.w3.org/1999/xlink" x="0px" y="0px"
	 width="189.443px" height="189.443px" viewBox="0 0 189.443 189.443" enable-background="new 0 0 189.443 189.443"
	 xml:space="preserve">
<circle cx="94.722" cy="94.722" r="94.722"/>
<g>
	<path fill="#FFFFFF" d="M53.618,86.852l0.088-11.022H53.64l-4.048,11.022h-2.64L43.014,75.83h-0.066l0.088,11.022h-3.542V71.275
		h5.353l3.546,9.988h0.088l3.393-9.988h5.44v15.576H53.618z"/>
	<path fill="#FFFFFF" d="M76.553,78.998c0,1.232-0.212,2.358-0.638,3.377c-0.426,1.02-1.016,1.892-1.771,2.618
		c-0.756,0.726-1.654,1.287-2.695,1.683s-2.17,0.594-3.388,0.594c-1.218,0-2.343-0.198-3.377-0.594
		C63.65,86.28,62.755,85.719,62,84.993c-0.756-0.726-1.346-1.599-1.771-2.618c-0.426-1.019-0.638-2.145-0.638-3.377
		c0-1.247,0.212-2.372,0.638-3.377c0.425-1.004,1.015-1.859,1.771-2.563c0.755-0.704,1.65-1.247,2.684-1.628
		c1.034-0.381,2.159-0.572,3.377-0.572c1.217,0,2.346,0.191,3.388,0.572s1.939,0.924,2.695,1.628
		c0.755,0.704,1.345,1.559,1.771,2.563C76.34,76.625,76.553,77.751,76.553,78.998z M72.527,78.998c0-0.674-0.11-1.305-0.33-1.892
		c-0.22-0.586-0.524-1.089-0.913-1.507c-0.389-0.418-0.858-0.748-1.408-0.99c-0.55-0.242-1.155-0.363-1.815-0.363
		c-0.66,0-1.262,0.121-1.804,0.363c-0.542,0.242-1.012,0.572-1.408,0.99s-0.701,0.92-0.913,1.507
		c-0.213,0.587-0.319,1.218-0.319,1.892c0,0.704,0.11,1.353,0.33,1.947c0.22,0.594,0.524,1.104,0.913,1.529s0.854,0.759,1.397,1.001
		s1.144,0.363,1.804,0.363c0.66,0,1.261-0.121,1.804-0.363s1.012-0.576,1.408-1.001s0.704-0.935,0.924-1.529
		C72.417,80.351,72.527,79.702,72.527,78.998z"/>
	<path fill="#FFFFFF" d="M93.35,79.02c0,1.364-0.253,2.541-0.759,3.531c-0.506,0.99-1.174,1.804-2.002,2.442
		C89.76,85.63,88.825,86.1,87.784,86.4c-1.042,0.301-2.098,0.451-3.168,0.451h-5.808V71.275h5.632c1.1,0,2.186,0.129,3.256,0.385
		c1.07,0.257,2.024,0.682,2.86,1.276c0.836,0.594,1.51,1.39,2.024,2.387C93.093,76.321,93.35,77.553,93.35,79.02z M89.434,79.02
		c0-0.88-0.143-1.609-0.429-2.189c-0.286-0.579-0.668-1.041-1.144-1.386c-0.477-0.344-1.02-0.59-1.628-0.737
		c-0.608-0.146-1.235-0.22-1.881-0.22h-1.87v9.108h1.782c0.674,0,1.323-0.077,1.947-0.231c0.624-0.154,1.173-0.407,1.65-0.759
		c0.476-0.352,0.858-0.821,1.144-1.408C89.291,80.611,89.434,79.885,89.434,79.02z"/>
	<path fill="#FFFFFF" d="M95.594,86.852V71.275h10.473v3.168h-6.843v2.948h6.468v3.014h-6.468v3.234h7.238v3.212H95.594z"/>
	<path fill="#FFFFFF" d="M117.25,86.852l-3.382-6.182h-1.282v6.182h-3.674V71.275h5.939c0.748,0,1.479,0.077,2.189,0.231
		c0.711,0.154,1.35,0.415,1.914,0.781s1.016,0.851,1.354,1.452c0.337,0.602,0.506,1.35,0.506,2.244c0,1.056-0.286,1.944-0.858,2.662
		c-0.571,0.719-1.364,1.232-2.376,1.54l4.07,6.666H117.25z M117.096,76.05c0-0.367-0.077-0.664-0.232-0.891
		c-0.154-0.228-0.354-0.403-0.596-0.528c-0.244-0.124-0.517-0.209-0.818-0.253c-0.303-0.044-0.594-0.066-0.873-0.066h-2.012v3.63
		h1.791c0.309,0,0.625-0.025,0.95-0.077c0.324-0.051,0.618-0.143,0.884-0.275c0.266-0.132,0.482-0.322,0.652-0.572
		C117.012,76.769,117.096,76.446,117.096,76.05z"/>
	<path fill="#FFFFFF" d="M133.178,86.852l-6.27-10.186h-0.066l0.088,10.186h-3.652V71.275h4.291l6.248,10.164h0.065l-0.088-10.164
		h3.651v15.576H133.178z"/>
	<path fill="#FFFFFF" d="M147.045,74.488v12.364h-3.763V74.488h-4.399v-3.212h12.562v3.212H147.045z"/>
	<path fill="#FFFFFF" d="M17.644,104.488v3.211h6.028v3.103h-6.028v6.05h-3.718v-15.576h10.252v3.213H17.644z"/>
	<path fill="#FFFFFF" d="M42.318,108.998c0,1.231-0.212,2.357-0.638,3.377c-0.426,1.02-1.016,1.892-1.771,2.617
		c-0.756,0.727-1.654,1.287-2.695,1.684s-2.17,0.594-3.388,0.594c-1.218,0-2.343-0.197-3.377-0.594
		c-1.034-0.396-1.929-0.957-2.684-1.684c-0.756-0.726-1.346-1.598-1.771-2.617c-0.426-1.02-0.638-2.146-0.638-3.377
		c0-1.247,0.212-2.373,0.638-3.377c0.425-1.005,1.015-1.859,1.771-2.563c0.755-0.704,1.65-1.247,2.684-1.628
		c1.034-0.381,2.159-0.572,3.377-0.572c1.217,0,2.346,0.191,3.388,0.572s1.939,0.924,2.695,1.628
		c0.755,0.704,1.345,1.559,1.771,2.563C42.106,106.625,42.318,107.751,42.318,108.998z M38.292,108.998
		c0-0.675-0.11-1.306-0.33-1.893c-0.22-0.586-0.524-1.089-0.913-1.507c-0.389-0.418-0.858-0.748-1.408-0.99
		c-0.55-0.241-1.155-0.362-1.815-0.362c-0.66,0-1.262,0.121-1.804,0.362c-0.542,0.242-1.012,0.572-1.408,0.99
		s-0.701,0.921-0.913,1.507c-0.213,0.587-0.319,1.218-0.319,1.893c0,0.703,0.11,1.353,0.33,1.946
		c0.22,0.595,0.524,1.104,0.913,1.529s0.854,0.759,1.397,1.001s1.144,0.363,1.804,0.363c0.66,0,1.261-0.121,1.804-0.363
		s1.012-0.576,1.408-1.001s0.704-0.935,0.924-1.529C38.183,110.351,38.292,109.701,38.292,108.998z M33.298,98.151
		c0,0.514-0.18,0.942-0.539,1.287c-0.36,0.345-0.796,0.517-1.309,0.517c-0.514,0-0.946-0.176-1.298-0.527
		c-0.352-0.352-0.528-0.777-0.528-1.276c0-0.234,0.047-0.458,0.143-0.671c0.095-0.213,0.224-0.403,0.385-0.572
		c0.162-0.168,0.355-0.301,0.583-0.396s0.466-0.144,0.715-0.144c0.513,0,0.949,0.173,1.309,0.518
		C33.119,97.231,33.298,97.653,33.298,98.151z M38.095,98.151c0,0.514-0.181,0.942-0.542,1.287
		c-0.362,0.345-0.793,0.517-1.295,0.517c-0.516,0-0.952-0.176-1.306-0.527s-0.531-0.777-0.531-1.276
		c0-0.234,0.048-0.458,0.144-0.671c0.096-0.213,0.225-0.403,0.387-0.572c0.162-0.168,0.354-0.301,0.575-0.396
		c0.222-0.095,0.465-0.144,0.73-0.144c0.502,0,0.933,0.173,1.295,0.518C37.914,97.231,38.095,97.653,38.095,98.151z"/>
	<path fill="#FFFFFF" d="M52.912,116.852l-3.382-6.182h-1.282v6.182h-3.674v-15.576h5.94c0.748,0,1.478,0.077,2.189,0.23
		c0.711,0.154,1.349,0.415,1.914,0.781c0.564,0.367,1.016,0.852,1.353,1.453s0.506,1.35,0.506,2.243
		c0,1.056-0.286,1.944-0.858,2.662c-0.572,0.719-1.364,1.231-2.376,1.54l4.07,6.666H52.912z M52.758,106.05
		c0-0.366-0.078-0.663-0.232-0.892c-0.155-0.227-0.354-0.402-0.597-0.527c-0.244-0.125-0.516-0.209-0.818-0.254
		c-0.302-0.043-0.593-0.065-0.873-0.065h-2.012v3.63h1.791c0.309,0,0.626-0.025,0.951-0.076c0.324-0.052,0.619-0.144,0.884-0.275
		c0.266-0.133,0.483-0.322,0.652-0.572C52.673,106.769,52.758,106.445,52.758,106.05z"/>
	<path fill="#FFFFFF" d="M58.939,116.852v-15.576h10.472v3.168h-6.842v2.948h6.468v3.015h-6.468v3.233h7.238v3.212H58.939z"/>
	<path fill="#FFFFFF" d="M78.847,104.488v12.363h-3.762v-12.363h-4.4v-3.213h12.562v3.213H78.847z"/>
	<path fill="#FFFFFF" d="M93.99,116.852l-1.21-3.059h-6.028l-1.144,3.059h-4.092l6.534-15.576h3.652l6.468,15.576H93.99z
		 M89.81,105.434l-1.98,5.346h3.916L89.81,105.434z"/>
	<path fill="#FFFFFF" d="M109.781,116.873c-1.02,0.25-2.131,0.375-3.333,0.375c-1.247,0-2.395-0.198-3.442-0.595
		c-1.049-0.396-1.951-0.953-2.707-1.672c-0.756-0.718-1.346-1.58-1.771-2.585c-0.426-1.004-0.638-2.123-0.638-3.355
		c0-1.246,0.216-2.375,0.648-3.388c0.433-1.012,1.03-1.873,1.793-2.585c0.763-0.711,1.657-1.258,2.684-1.639
		c1.027-0.381,2.135-0.572,3.322-0.572c1.232,0,2.377,0.188,3.432,0.561c1.057,0.375,1.914,0.877,2.574,1.508l-2.375,2.705
		c-0.367-0.424-0.852-0.773-1.453-1.045c-0.602-0.271-1.283-0.406-2.045-0.406c-0.66,0-1.27,0.121-1.826,0.363
		c-0.558,0.242-1.042,0.579-1.452,1.012c-0.411,0.433-0.729,0.945-0.957,1.54c-0.228,0.594-0.341,1.243-0.341,1.946
		c0,0.719,0.102,1.379,0.308,1.98s0.51,1.119,0.913,1.551c0.403,0.434,0.902,0.771,1.496,1.012c0.594,0.242,1.271,0.363,2.035,0.363
		c0.439,0,0.857-0.033,1.254-0.099s0.762-0.173,1.1-0.319v-2.838h-2.97v-3.035h6.424v8.25
		C111.691,116.302,110.801,116.625,109.781,116.873z"/>
	<path fill="#FFFFFF" d="M125.96,116.852l-1.21-3.059h-6.027l-1.145,3.059h-4.092l6.533-15.576h3.652l6.469,15.576H125.96z
		 M121.779,105.434l-1.979,5.346h3.916L121.779,105.434z"/>
	<path fill="#FFFFFF" d="M141.271,116.852l-6.27-10.186h-0.066l0.088,10.186h-3.652v-15.576h4.291l6.248,10.164h0.065l-0.088-10.164
		h3.651v15.576H141.271z"/>
	<path fill="#FFFFFF" d="M163.131,109.02c0,1.364-0.254,2.541-0.76,3.531s-1.174,1.804-2.002,2.441
		c-0.828,0.639-1.764,1.107-2.805,1.408s-2.098,0.451-3.168,0.451h-5.809v-15.576h5.633c1.1,0,2.186,0.129,3.256,0.385
		c1.07,0.258,2.023,0.683,2.859,1.276c0.836,0.595,1.511,1.39,2.024,2.388C162.873,106.321,163.131,107.553,163.131,109.02z
		 M159.215,109.02c0-0.88-0.144-1.609-0.43-2.189c-0.285-0.578-0.668-1.041-1.144-1.386c-0.478-0.345-1.02-0.59-1.628-0.737
		c-0.609-0.146-1.236-0.219-1.881-0.219h-1.871v9.107h1.783c0.674,0,1.322-0.077,1.946-0.23c0.624-0.154,1.173-0.408,1.65-0.76
		c0.476-0.352,0.858-0.821,1.144-1.408C159.071,110.611,159.215,109.885,159.215,109.02z"/>
	<path fill="#FFFFFF" d="M165.375,116.852v-15.576h10.472v3.168h-6.843v2.948h6.469v3.015h-6.469v3.233h7.238v3.212H165.375z"/>
</g>
<g>
	<path fill="#FFFFFF" d="M108.762,143.172c-0.4,0.641-0.869,1.289-1.41,1.949c-0.539,0.66-1.15,1.26-1.83,1.801
		c-0.68,0.539-1.43,0.98-2.25,1.32s-1.709,0.51-2.67,0.51c-0.561,0-1.09-0.03-1.59-0.09c-0.5-0.061-1.01-0.17-1.529-0.33
		c-0.521-0.16-1.061-0.381-1.62-0.66c-0.562-0.279-1.2-0.64-1.92-1.08c-1.24-0.8-2.32-1.4-3.24-1.801c-0.921-0.398-1.9-0.6-2.94-0.6
		c-0.681,0-1.32,0.141-1.92,0.42c-0.6,0.281-1.14,0.631-1.62,1.051s-0.9,0.891-1.26,1.41c-0.36,0.52-0.681,1.02-0.96,1.5l-2.52-2.4
		c0.44-0.64,0.93-1.291,1.47-1.95c0.54-0.66,1.14-1.261,1.8-1.8c0.66-0.541,1.4-0.98,2.22-1.32c0.819-0.34,1.71-0.51,2.67-0.51
		c1.119,0,2.19,0.15,3.21,0.449c1.02,0.301,2.15,0.852,3.39,1.65c1.16,0.76,2.24,1.36,3.24,1.801
		c0.999,0.439,1.979,0.659,2.939,0.659c0.68,0,1.32-0.14,1.92-0.42c0.6-0.279,1.141-0.64,1.62-1.08
		c0.479-0.439,0.909-0.919,1.29-1.44c0.38-0.519,0.71-0.998,0.99-1.439L108.762,143.172z"/>
</g>
<g>
	<path fill="#FFFFFF" d="M108.762,33.253c-0.4,0.641-0.869,1.29-1.41,1.95c-0.539,0.66-1.15,1.26-1.83,1.8s-1.43,0.981-2.25,1.32
		c-0.82,0.34-1.709,0.51-2.67,0.51c-0.561,0-1.09-0.03-1.59-0.09s-1.01-0.17-1.529-0.33c-0.521-0.159-1.061-0.38-1.62-0.66
		c-0.562-0.279-1.2-0.639-1.92-1.08c-1.24-0.8-2.32-1.4-3.24-1.8c-0.921-0.399-1.9-0.6-2.94-0.6c-0.681,0-1.32,0.141-1.92,0.42
		c-0.6,0.281-1.14,0.63-1.62,1.05s-0.9,0.891-1.26,1.41c-0.36,0.52-0.681,1.02-0.96,1.5l-2.52-2.4c0.44-0.639,0.93-1.29,1.47-1.95
		c0.54-0.66,1.14-1.26,1.8-1.8c0.66-0.54,1.4-0.979,2.22-1.32c0.819-0.339,1.71-0.51,2.67-0.51c1.119,0,2.19,0.15,3.21,0.45
		c1.02,0.3,2.15,0.851,3.39,1.65c1.16,0.76,2.24,1.36,3.24,1.8c0.999,0.44,1.979,0.66,2.939,0.66c0.68,0,1.32-0.14,1.92-0.42
		c0.6-0.279,1.141-0.639,1.62-1.08c0.479-0.439,0.909-0.919,1.29-1.44c0.38-0.519,0.71-0.999,0.99-1.44L108.762,33.253z"/>
</g>
<g>
</g>
<g>
</g>
<g>
</g>
<g>
</g>
<g>
</g>
<g>
</g>
<g>
</g>
<g>
</g>
<g>
</g>
<g>
</g>
<g>
</g>
<g>
</g>
<g>
</g>
<g>
</g>
<g>
</g>
</svg>
